<svg xmlns="http://www.w3.org/2000/svg" version="1.1" xmlns:xlink="http://www.w3.org/1999/xlink" xmlns:svgjs="http://svgjs.dev/svgjs" width="1000" height="1000" viewBox="0 0 1000 1000"><rect width="1000" height="1000" fill="#000000"></rect><g transform="matrix(0.7,0,0,0.7,150.0000000000001,106.25)"><svg viewBox="0 0 320 360" data-background-color="#ffffff" preserveAspectRatio="xMidYMid meet" height="1125" width="1000" xmlns="http://www.w3.org/2000/svg" xmlns:xlink="http://www.w3.org/1999/xlink"><g id="tight-bounds" transform="matrix(1,0,0,1,0,0)"><svg viewBox="0 0 320 360" height="360" width="320"><g><svg></svg></g><g><svg viewBox="0 0 320 360" height="360" width="320"><g><path xmlns="http://www.w3.org/2000/svg" d="M20.961 227.22l3.726 4.658-1.863-6.056c-0.466-2.795-3.726 0.466-1.863 1.398M25.153 224.425c1.397 2.329 2.795 4.658 2.795 6.987 0 3.261 2.795 4.658 5.123 5.589-3.261-3.726-5.124-13.974-7.918-12.576M204.017 26.929c7.918 0 15.371-0.932 23.756 0.931 20.495 5.124 37.729 15.371 49.374 29.811l32.606 52.169c1.397 13.042 4.192 27.482 3.726 43.319 3.261 0 2.795-4.658 6.521-5.59-3.726 9.316-5.59 20.961-6.521 34.469-2.329-7.453 0-18.632 0.466-24.687-3.261 5.124-5.124 1.397-5.124-0.932 0.466-3.726-1.397-3.261-2.795-4.658-5.124-4.658-8.384-9.782-12.11-17.7 2.329-6.055 2.795-14.905-4.658-19.563-2.329-1.397-5.124-3.726-6.521-7.453-1.863-5.124-5.124-11.179-4.193-19.097 0.466-2.329-6.987 5.124-11.179 1.863-18.166-12.576-36.332-27.016-58.224-39.127-11.645 0-20.029-4.192-24.221-9.316-3.726-4.658-0.932-10.713 4.658-11.179 3.261 0 6.987-0.932 9.782 0.932 0.466-1.863 2.329-4.192 4.657-4.192M157.904 16.215l0.932 0.466c4.658 0.932 6.987 7.453 12.11 5.124 0 3.261 0.466 6.521-0.466 8.85-1.397 3.726-5.59 3.726-8.85 3.726-31.208-1.863-49.374 11.179-68.471 22.358-5.124 3.261-10.713 5.59-14.906 9.782-20.029 18.632-41.921 35.866-47.045 70.335l-4.192 38.195c-0.466 4.192-5.124 8.384-4.192 13.508l3.26 22.824c-3.261-3.261-5.124 0.932-4.192 2.795 0.466 1.397 2.329 6.055 5.124 1.863 3.726 6.987 7.453 20.495 12.576 26.55 15.837 18.632 36.332 35.4 53.101 52.169 4.192-0.932 7.453-0.932 8.384-3.727 1.397 2.795-1.397 5.59-3.726 6.056 7.453 4.658 15.837 8.85 27.016 9.781 14.44 0.932 27.948 3.261 40.524 6.522 6.521-1.863 13.042-2.795 20.029-3.261 2.329 0 3.726-3.726 6.521-4.658l0.466-4.658c2.795 4.192 2.329-1.397 0.466-4.192 3.261 2.795 4.192 5.124 5.589 6.987 0-1.397 3.726-6.521 3.727-0.466l0.931-6.055c1.397-0.932 1.863 5.124 3.261 0.931 1.397-4.192 4.192-0.932 6.987-2.329-0.932 1.863-0.466 5.59 2.794 3.261l3.727-3.261c2.329 5.59 6.055 3.261 7.918 2.329 20.495-13.042 40.99-28.413 60.553-43.784l-0.466 6.055 2.329-7.453c2.329 2.329 4.192 0.466 5.124-0.931 2.795-4.658 6.521-9.316 12.577-13.508-7.453 20.029-16.303 35.866-27.482 48.908l-4.658 5.59c0 3.261-0.932 7.453-4.658 7.918-1.863 0.466-5.59-0.932-8.384 1.863-1.397 1.863 3.261 5.59-0.466 2.795-3.261-2.329-6.521 0-10.248 0.932-2.795 0.932 1.863 3.726 2.795 5.589 0.932 1.863 1.863 3.726 1.398 6.056l-5.124-5.59c-6.055 3.261-9.782 9.316-14.906 13.974-2.329 1.863-1.397 5.124-1.397 7.918-3.261 0-6.987-0.932-8.85 0.932-1.397 1.863-0.932 4.658-0.932 7.453-4.658-0.466-5.124-7.453-9.315-6.056-4.192 0.932-8.85 1.397-12.577 3.727 2.795 5.59-4.658 2.329-3.726 3.26-6.987-4.192-13.042-7.453-20.495-4.658-15.837-5.124-35.4-2.795-49.84-0.931 0-2.329 0.466-4.658-0.466-5.124-0.932 2.329-3.726 1.397-3.26 1.397-8.85-6.055-17.7-9.782-27.016-14.905-8.384 0.932-16.303-3.261-18.632-5.59-6.521-6.055-13.974-2.795-20.029-4.192-13.042-3.261-17.7-16.769-19.098-26.084-0.932-4.658-4.658-6.521-6.055-6.056-6.055-19.563-15.371-37.263-22.824-55.429-1.863-4.658-1.397-9.316-1.397-14.44 2.329 0.932 4.658 0.466 4.192-2.794-2.329-15.371-7.918-27.016-13.974-38.195 3.261-15.837 3.726-34.469 11.179-48.443 6.521-12.576 18.632-19.098 27.016-29.811 2.795-3.726 2.795-8.85 5.59-12.11 9.316-9.316 18.632-19.098 28.879-27.482 4.658-3.726 10.247 0 17.234-1.397 2.329-8.384 11.645-15.837 20.495-13.508 3.726 0.932 11.179-8.85 13.508-9.782 3.726-1.397 1.863 3.726 1.863 6.987 8.85-6.987 20.961-10.713 32.14-14.906" fill="#096a2e" fill-rule="nonzero" stroke="none" stroke-width="1" stroke-linecap="butt" stroke-linejoin="miter" stroke-miterlimit="10" stroke-dasharray="" stroke-dashoffset="0" font-family="none" font-weight="none" font-size="none" text-anchor="none" style="mix-blend-mode: normal" data-fill-palette-color="tertiary"></path></g><g transform="matrix(1,0,0,1,105.75283299004704,90)"><svg viewBox="0 0 108.4943340199059 180" height="180" width="108.4943340199059"><g><svg viewBox="0 0 108.4943340199059 180" height="180" width="108.4943340199059"><g><svg viewBox="0 0 237.312 393.7178875365297" height="180" width="108.4943340199059"><g transform="matrix(1,0,0,1,22.656000000000006,250.99820793466253)"><svg viewBox="0 0 192 142.7196796018672" height="142.7196796018672" width="192"><g><svg viewBox="0 0 192 142.7196796018672" height="142.7196796018672" width="192"><g><svg viewBox="0 0 192 93.80884450784592" height="93.80884450784592" width="192"><g transform="matrix(1,0,0,1,0,0)"><svg width="192" viewBox="0.45000001788139343 -32.849998474121094 70.10000610351562 34.25" height="93.80884450784592" data-palette-color="#096a2e"><path d="M24.35-26.35Q24.1-27.15 22.43-27.78 20.75-28.4 18.05-28.4L18.05-28.4Q15.1-28.4 13.45-26.75 11.8-25.1 11.8-22.6L11.8-22.6Q11.8-21.05 12.93-20.23 14.05-19.4 16.4-18.4L16.4-18.4 18.2-17.65 19.7-16.95Q22.4-15.75 23.98-14.78 25.55-13.8 26.65-12.1 27.75-10.4 27.75-7.75L27.75-7.75Q27.75-4.9 25.88-2.83 24-0.75 20.65 0.33 17.3 1.4 12.85 1.4L12.85 1.4Q9.55 1.4 6.68 0.38 3.8-0.65 2.13-2.2 0.45-3.75 0.45-5.25L0.45-5.25Q0.45-6.7 1.7-7.63 2.95-8.55 5.25-8.9L5.25-8.9Q5.5-7.45 6.95-6.3 8.4-5.15 10.33-4.48 12.25-3.8 13.7-3.8L13.7-3.8Q16.35-3.8 18.43-4.85 20.5-5.9 20.5-7.75L20.5-7.75Q20.5-9.3 19.03-10.33 17.55-11.35 14.6-12.55L14.6-12.55 11.95-13.75Q8.7-15.35 6.8-17.35 4.9-19.35 4.9-22.65L4.9-22.65Q4.9-26.3 6.95-28.58 9-30.85 11.93-31.85 14.85-32.85 17.65-32.85L17.65-32.85Q22.1-32.85 24.98-31.7 27.85-30.55 29.15-28.8 30.45-27.05 30.45-25.2L30.45-25.2Q30.45-24.15 29.93-22.65 29.4-21.15 28.38-20.05 27.35-18.95 25.9-18.95L25.9-18.95Q23.4-18.95 23.4-21.55L23.4-21.55Q23.5-22.35 23.85-24.18 24.2-26 24.35-26.35L24.35-26.35ZM50.3-15.05Q48.75-10.1 46.7-6.5 44.65-2.9 42.45-1 40.25 0.9 38.25 0.9L38.25 0.9Q33.65 0.9 33.65-8.55L33.65-8.55Q33.65-14.35 35.05-20.08 36.45-25.8 38.15-29.9L38.15-29.9Q38.65-31.2 39.45-31.98 40.25-32.75 41.7-32.75L41.7-32.75Q43.05-32.75 43.85-32.08 44.65-31.4 44.65-30.05L44.65-30.05 44.6-29.45Q44.6-29.35 44-27.8L44-27.8Q42.5-23.75 41.32-20.05 40.15-16.35 39.85-13L39.85-13Q39.7-11.3 39.7-9.65L39.7-9.65Q39.7-8 40.05-6.98 40.4-5.95 41.05-5.95L41.05-5.95Q42.5-5.95 44.57-10.13 46.65-14.3 48.55-20.13 50.45-25.95 51.35-30.35L51.35-30.35Q51.55-31.3 52.5-31.95 53.45-32.6 54.15-32.6L54.15-32.6Q55.4-32.6 55.97-31.98 56.55-31.35 56.55-30.05L56.55-30.05 56.5-29.35Q56.5-29.15 56.4-28.8 56.3-28.45 56.2-27.9L56.2-27.9Q53.8-16.5 53.3-10.9L53.3-10.9Q53.25-10.5 53.25-9.7L53.25-9.7Q53.25-8 53.72-6.98 54.2-5.95 54.95-5.95L54.95-5.95Q57.4-5.95 59.9-13.58 62.4-21.2 64.35-30.5L64.35-30.5Q64.55-31.4 65.22-31.83 65.9-32.25 66.85-32.25L66.85-32.25Q68.05-32.25 69.3-31.75 70.55-31.25 70.55-30.65L70.55-30.65 69.75-27.15Q67.9-18.95 66.02-13.15 64.15-7.35 61.12-3.23 58.1 0.9 53.8 0.9L53.8 0.9Q49.6 0.9 49.6-6.8L49.6-6.8Q49.6-10.35 50.5-15.05L50.5-15.05 50.3-15.05Z" opacity="1" transform="matrix(1,0,0,1,0,0)" fill="#ffffff" class="undefined-text-0" data-fill-palette-color="primary" id="text-0"></path></svg></g></svg></g><g transform="matrix(1,0,0,1,0,107.49780633380882)"><svg viewBox="0 0 192 35.221873268058374" height="35.221873268058374" width="192"><g transform="matrix(1,0,0,1,0,0)"><svg width="192" viewBox="-0.5 -38.75 270.6300048828125 49.650001525878906" height="35.221873268058374" data-palette-color="#3c3c3c"><path d="M17.5-19.35Q16.9-19.65 16-19.65L16-19.65Q13.75-19.65 11.5-18.75 9.25-17.85 9.25-16.45L9.25-16.45Q9.25-15.45 10.15-14.85 11.05-14.25 13-13.5L13-13.5Q15.1-12.65 16.4-11.9 17.7-11.15 18.68-9.73 19.65-8.3 19.65-6.1L19.65-6.1Q19.65-2.5 16.68-0.58 13.7 1.35 8.7 1.35L8.7 1.35Q6.25 1.35 4.15 0.6 2.05-0.15 0.83-1.33-0.4-2.5-0.5-3.65L-0.5-3.65Q-0.5-4.85 0.55-5.63 1.6-6.4 3.5-6.65L3.5-6.65Q3.55-5.65 4.55-4.78 5.55-3.9 6.93-3.38 8.3-2.85 9.3-2.85L9.3-2.85Q11-2.85 12.4-3.78 13.8-4.7 13.8-5.95L13.8-5.95Q13.8-8.25 9.35-9.6L9.35-9.6Q6.5-10.45 4.98-12.3 3.45-14.15 3.45-16.2L3.45-16.2Q3.45-20.25 7.13-22.03 10.8-23.8 16.5-23.8L16.5-23.8Q19.7-23.8 21.45-23.05 23.2-22.3 23.2-20.45L23.2-20.45Q23.2-19.2 22.28-18.25 21.35-17.3 19.65-17.3L19.65-17.3Q18.15-17.3 17.73-17.53 17.3-17.75 17.25-18.3L17.25-18.3Q17.25-18.8 17.5-19.35L17.5-19.35ZM29.55-2.2Q29.5-1.9 28.22 3.28 26.95 8.45 26.45 9.8L26.45 9.8Q26.25 10.35 25.25 10.63 24.25 10.9 23.8 10.9L23.8 10.9Q22.7 10.9 21.97 10.2 21.25 9.5 21.2 8.1L21.2 8.1 24.7-6.25Q26.7-14.1 28-19.65L28-19.65Q28-19.95 27.65-21.25L27.65-21.25Q27.5-22.05 27.35-22.75 27.2-23.45 27.15-23.8L27.15-23.8Q27.25-24.45 28.17-24.85 29.1-25.25 29.9-25.25L29.9-25.25Q31.1-25.25 32.27-24.4 33.45-23.55 33.6-22.35L33.6-22.35 33.45-21.05Q35.7-23.85 39.2-23.85L39.2-23.85Q42.05-23.85 44.12-22.48 46.2-21.1 47.3-18.78 48.4-16.45 48.4-13.65L48.4-13.65Q48.4-9.9 46.95-6.6 45.5-3.3 42.6-1.28 39.7 0.75 35.6 0.75L35.6 0.75Q34.3 0.75 32.25-0.13 30.2-1 29.55-2.2L29.55-2.2ZM31.1-8.55Q31-7.95 31-7.7L31-7.7Q31.05-6.45 31.82-5.5 32.6-4.55 33.65-4.03 34.7-3.5 35.4-3.5L35.4-3.5Q37.6-3.5 39.27-5.18 40.95-6.85 41.85-9.33 42.75-11.8 42.75-14.05L42.75-14.05Q42.75-16.15 41.62-17.78 40.5-19.4 38.8-19.4L38.8-19.4Q36.9-19.4 35.67-18.57 34.45-17.75 32.9-16.05L32.9-16.05 31.1-8.55ZM59.5 1.05Q54.6 1.05 52.35-0.9 50.1-2.85 50.1-6.1L50.1-6.1Q50.1-10.85 52.47-14.9 54.85-18.95 58.82-21.33 62.8-23.7 67.4-23.7L67.4-23.7Q70.2-23.7 72.09-22.13 74-20.55 74-17.5L74-17.5Q74-15.75 72.87-14.63 71.75-13.5 69.65-12.63 67.55-11.75 62.85-10.15L62.85-10.15Q58.6-8.75 55.95-7.8L55.95-7.8Q55.75-7.05 55.75-6.25L55.75-6.25Q55.75-4.85 56.92-4.1 58.1-3.35 60.25-3.35L60.25-3.35Q61.6-3.35 63.35-3.9 65.09-4.45 65.55-5.3L65.55-5.3Q67.25-8.4 68.65-8.4L68.65-8.4Q70.7-8.4 71.42-7.63 72.15-6.85 72.2-5.9L72.2-5.9Q71.59-4.3 69.84-2.68 68.09-1.05 65.4 0 62.7 1.05 59.5 1.05L59.5 1.05ZM57.35-12.4Q62.3-14 65.5-15.38 68.7-16.75 68.7-18.1L68.7-18.1Q68.7-18.7 68.05-19.07 67.4-19.45 66.65-19.45L66.65-19.45Q65.15-19.45 63.22-18.3 61.3-17.15 59.65-15.5 58-13.85 57.35-12.4L57.35-12.4ZM85.19 1.05Q80.29 1.05 78.04-0.9 75.79-2.85 75.79-6.1L75.79-6.1Q75.79-10.85 78.17-14.9 80.54-18.95 84.52-21.33 88.49-23.7 93.09-23.7L93.09-23.7Q95.89-23.7 97.79-22.13 99.69-20.55 99.69-17.5L99.69-17.5Q99.69-15.75 98.57-14.63 97.44-13.5 95.34-12.63 93.24-11.75 88.54-10.15L88.54-10.15Q84.29-8.75 81.64-7.8L81.64-7.8Q81.44-7.05 81.44-6.25L81.44-6.25Q81.44-4.85 82.62-4.1 83.79-3.35 85.94-3.35L85.94-3.35Q87.29-3.35 89.04-3.9 90.79-4.45 91.24-5.3L91.24-5.3Q92.94-8.4 94.34-8.4L94.34-8.4Q96.39-8.4 97.12-7.63 97.84-6.85 97.89-5.9L97.89-5.9Q97.29-4.3 95.54-2.68 93.79-1.05 91.09 0 88.39 1.05 85.19 1.05L85.19 1.05ZM83.04-12.4Q87.99-14 91.19-15.38 94.39-16.75 94.39-18.1L94.39-18.1Q94.39-18.7 93.74-19.07 93.09-19.45 92.34-19.45L92.34-19.45Q90.84-19.45 88.92-18.3 86.99-17.15 85.34-15.5 83.69-13.85 83.04-12.4L83.04-12.4ZM123.89-37.05Q124.09-37.8 125.07-38.27 126.04-38.75 127.14-38.75L127.14-38.75Q128.04-38.75 129.09-38.35 130.14-37.95 130.14-37.2L130.14-37.2 126.99-24.9Q122.84-8.75 122.14-5.2L122.14-5.2Q121.84-3.7 121.84-2.9L121.84-2.9Q121.84-1.55 122.14-0.25L122.14-0.25Q122.04 0.05 121.37 0.35 120.69 0.65 120.14 0.65L120.14 0.65Q119.14 0.65 117.94 0.4 116.74 0.15 116.44-0.15L116.44-0.15Q115.99-0.55 115.99-1.75L115.99-1.75Q115.99-2.65 116.19-3.45L116.19-3.45Q115.14-1.95 113.02-0.98 110.89 0 109.59 0L109.59 0Q101.94 0 101.94-8.25L101.94-8.25Q101.94-11.85 103.57-15.45 105.19-19.05 108.22-21.4 111.24-23.75 115.24-23.75L115.24-23.75Q116.34-23.75 117.69-22.88 119.04-22 119.89-20.9L119.89-20.9Q120.99-25.55 121.84-28.65L121.84-28.65Q122.24-30.3 122.77-32.43 123.29-34.55 123.89-37.05L123.89-37.05ZM118.79-16.25Q118.49-17.35 117.37-18.28 116.24-19.2 115.54-19.2L115.54-19.2Q113.24-19.2 111.24-17.7 109.24-16.2 108.07-13.8 106.89-11.4 106.89-8.85L106.89-8.85Q106.89-6.95 107.59-5.45 108.29-3.95 109.74-3.95L109.74-3.95Q110.99-3.95 112.67-4.78 114.34-5.6 115.64-6.93 116.94-8.25 117.24-9.65L117.24-9.65 118.79-16.25ZM157.24-10.8Q155.49-5.3 152.76-2.2 150.04 0.9 147.24 0.9L147.24 0.9Q142.24 0.9 142.24-8.1L142.24-8.1Q142.24-11.85 143.16-15.45 144.09-19.05 145.24-21.65L145.24-21.65Q146.14-23.75 148.44-23.75L148.44-23.75Q151.04-23.75 151.04-21.45L151.04-21.45Q151.04-21.2 150.44-19.5L150.44-19.5Q147.74-12.2 147.74-8.3L147.74-8.3Q147.74-6.45 148.06-5.28 148.39-4.1 149.14-4.1L149.14-4.1Q150.49-4.1 152.16-7.18 153.84-10.25 155.26-14.53 156.69-18.8 157.29-22L157.29-22Q157.39-22.65 158.26-23.15 159.14-23.65 159.79-23.65L159.79-23.65Q161.09-23.65 161.64-23.08 162.19-22.5 162.19-21.25L162.19-21.25Q162.19-21 161.89-19.7L161.89-19.7Q161.14-15.7 160.71-12.93 160.29-10.15 160.29-7.75L160.29-7.75Q160.29-6.15 160.81-5.13 161.34-4.1 162.14-4.1L162.14-4.1Q164.44-4.1 166.36-9.8 168.29-15.5 169.49-22.1L169.49-22.1Q169.69-23.4 171.69-23.4L171.69-23.4Q172.79-23.4 173.84-23.03 174.89-22.65 174.94-22.2L174.94-22.2 174.39-19.65Q172.99-13.1 171.74-9.1 170.49-5.1 167.99-2.1 165.49 0.9 161.49 0.9L161.49 0.9Q157.04 0.9 157.04-6.2L157.04-6.2Q157.04-8.4 157.44-10.8L157.44-10.8 157.24-10.8ZM185.28 1.05Q180.88 1.05 178.43-1.95 175.98-4.95 175.98-9.6L175.98-9.6Q175.98-13.5 177.86-16.95 179.73-20.4 182.98-22.5 186.23-24.6 190.13-24.6L190.13-24.6Q193.98-24.6 196.46-22.08 198.93-19.55 198.93-14.65L198.93-14.65Q198.93-11.2 197.03-7.5 195.13-3.8 191.96-1.38 188.78 1.05 185.28 1.05L185.28 1.05ZM186.03-2.95Q187.63-2.95 189.26-4.95 190.88-6.95 191.93-10 192.98-13.05 192.98-15.95L192.98-15.95Q192.98-20.4 189.28-20.4L189.28-20.4Q187.23-20.4 185.53-18.45 183.83-16.5 182.83-13.63 181.83-10.75 181.83-8.25L181.83-8.25Q181.83-6.8 182.48-5.58 183.13-4.35 184.11-3.65 185.08-2.95 186.03-2.95L186.03-2.95ZM206.88-1.9Q206.83-1.6 206.66-0.73 206.48 0.15 205.81 0.5 205.13 0.85 203.68 0.85L203.68 0.85Q202.03 0.85 201.28 0.5 200.53 0.15 200.53-1L200.53-1 202.93-10.55Q204.93-18.8 205.58-21.05L205.58-21.05 204.33-22.55Q204.18-22.7 204.18-22.9L204.18-22.9Q204.18-23.4 205.28-23.73 206.38-24.05 208.33-24.05L208.33-24.05Q210.08-24.05 210.68-23.08 211.28-22.1 211.43-20.55L211.43-20.55 211.08-19.25Q212.68-21.2 214.81-22.48 216.93-23.75 218.58-23.75L218.58-23.75Q220.73-23.75 221.93-23 223.13-22.25 223.13-21.05L223.13-21.05Q223.13-20 222.41-18.88 221.68-17.75 220.58-16.98 219.48-16.2 218.43-16.1L218.43-16.1Q217.43-16.1 217.08-16.35 216.73-16.6 216.73-17.1L216.73-17.1 217.03-18.75Q213.03-17.65 209.78-13.45L209.78-13.45 206.88-1.9ZM243.68-37.05Q243.88-37.8 244.85-38.27 245.83-38.75 246.93-38.75L246.93-38.75Q247.83-38.75 248.88-38.35 249.93-37.95 249.93-37.2L249.93-37.2 246.78-24.9Q242.63-8.75 241.93-5.2L241.93-5.2Q241.63-3.7 241.63-2.9L241.63-2.9Q241.63-1.55 241.93-0.25L241.93-0.25Q241.83 0.05 241.15 0.35 240.48 0.65 239.93 0.65L239.93 0.65Q238.93 0.65 237.73 0.4 236.53 0.15 236.23-0.15L236.23-0.15Q235.78-0.55 235.78-1.75L235.78-1.75Q235.78-2.65 235.98-3.45L235.98-3.45Q234.93-1.95 232.8-0.98 230.68 0 229.38 0L229.38 0Q221.73 0 221.73-8.25L221.73-8.25Q221.73-11.85 223.35-15.45 224.98-19.05 228-21.4 231.03-23.75 235.03-23.75L235.03-23.75Q236.13-23.75 237.48-22.88 238.83-22 239.68-20.9L239.68-20.9Q240.78-25.55 241.63-28.65L241.63-28.65Q242.03-30.3 242.55-32.43 243.08-34.55 243.68-37.05L243.68-37.05ZM238.58-16.25Q238.28-17.35 237.15-18.28 236.03-19.2 235.33-19.2L235.33-19.2Q233.03-19.2 231.03-17.7 229.03-16.2 227.85-13.8 226.68-11.4 226.68-8.85L226.68-8.85Q226.68-6.95 227.38-5.45 228.08-3.95 229.53-3.95L229.53-3.95Q230.78-3.95 232.45-4.78 234.13-5.6 235.43-6.93 236.73-8.25 237.03-9.65L237.03-9.65 238.58-16.25ZM264.43-19.35Q263.83-19.65 262.93-19.65L262.93-19.65Q260.68-19.65 258.43-18.75 256.18-17.85 256.18-16.45L256.18-16.45Q256.18-15.45 257.08-14.85 257.98-14.25 259.93-13.5L259.93-13.5Q262.03-12.65 263.33-11.9 264.63-11.15 265.6-9.73 266.58-8.3 266.58-6.1L266.58-6.1Q266.58-2.5 263.6-0.58 260.63 1.35 255.63 1.35L255.63 1.35Q253.18 1.35 251.08 0.6 248.98-0.15 247.75-1.33 246.53-2.5 246.43-3.65L246.43-3.65Q246.43-4.85 247.48-5.63 248.53-6.4 250.43-6.65L250.43-6.65Q250.48-5.65 251.48-4.78 252.48-3.9 253.85-3.38 255.23-2.85 256.23-2.85L256.23-2.85Q257.93-2.85 259.33-3.78 260.73-4.7 260.73-5.95L260.73-5.95Q260.73-8.25 256.28-9.6L256.28-9.6Q253.43-10.45 251.9-12.3 250.38-14.15 250.38-16.2L250.38-16.2Q250.38-20.25 254.05-22.03 257.73-23.8 263.43-23.8L263.43-23.8Q266.63-23.8 268.38-23.05 270.13-22.3 270.13-20.45L270.13-20.45Q270.13-19.2 269.2-18.25 268.28-17.3 266.58-17.3L266.58-17.3Q265.08-17.3 264.65-17.53 264.23-17.75 264.18-18.3L264.18-18.3Q264.18-18.8 264.43-19.35L264.43-19.35Z" opacity="1" transform="matrix(1,0,0,1,0,0)" fill="#ffffff" class="undefined-text-1" data-fill-palette-color="secondary" id="text-1"></path></svg></g></svg></g></svg></g></svg></g><g><svg viewBox="0 0 237.312 237.30924610869963" height="237.30924610869963" width="237.312"><g><svg xmlns="http://www.w3.org/2000/svg" xmlns:xlink="http://www.w3.org/1999/xlink" version="1.1" x="0" y="0" viewBox="6.6100006103515625 7.636000156402588 86.1259994506836 86.125" enable-background="new 0 0 100 100" xml:space="preserve" height="237.30924610869963" width="237.312" class="icon-icon-0" data-fill-palette-color="accent" id="icon-0"><g fill="#398378" data-fill-palette-color="accent"><g fill="#398378" data-fill-palette-color="accent"><rect x="18.436" y="34.267" transform="matrix(0.8655 0.5009 -0.5009 0.8655 20.9451 -6.966)" fill="#ffffff" width="10.015" height="2.5" data-fill-palette-color="accent"></rect></g><g fill="#398378" data-fill-palette-color="accent"><rect x="29.531" y="23.192" transform="matrix(0.4994 0.8663 -0.8663 0.4994 38.4639 -17.6873)" fill="#ffffff" width="10.014" height="2.5" data-fill-palette-color="accent"></rect></g><path fill="#ffffff" d="M49.672 7.636c-23.744 0-43.062 19.317-43.062 43.062 0 23.745 19.317 43.063 43.062 43.063 23.746 0 43.064-19.317 43.064-43.063C92.736 26.954 73.418 7.636 49.672 7.636zM79.64 31.977l1.249 2.166-8.675 5.003-1.249-2.166L79.64 31.977zM48.422 13.668v35.78h-35.78C13.292 30.006 28.98 14.317 48.422 13.668zM19.403 69.253l-1.243-2.17 8.693-4.979 1.243 2.17L19.403 69.253zM33.033 81.869l-2.163-1.254 5.025-8.662 2.163 1.254L33.033 81.869zM50.922 86.011h-2.5V75.996h2.5V86.011zM66.225 81.916l-5.001-8.677 2.166-1.248 5.001 8.677L66.225 81.916zM63.392 29.408l-2.165-1.249 5.003-8.676 2.165 1.249L63.392 29.408zM79.621 69.45l-8.672-5.011 1.251-2.165 8.672 5.011L79.621 69.45zM74.97 51.948v-2.5h10.015v2.5H74.97z" data-fill-palette-color="accent"></path></g></svg></g></svg></g><g></g></svg></g></svg></g></svg></g></svg></g><defs></defs></svg><rect width="320" height="360" fill="none" stroke="none" visibility="hidden"></rect></g></svg></g></svg>